<svg width="96" height="16" viewBox="0 0 96 16" fill="none" xmlns="http://www.w3.org/2000/svg">
<g clip-path="url(#clip0_11_417)">
<path d="M3.612 15.443C3.226 15.641 2.788 15.294 2.866 14.851L3.696 10.121L0.172996 6.765C-0.156004 6.451 0.0149962 5.877 0.455996 5.815L5.354 5.119L7.538 0.791996C7.735 0.401996 8.268 0.401996 8.465 0.791996L10.649 5.119L15.547 5.815C15.988 5.877 16.159 6.451 15.829 6.765L12.307 10.121L13.137 14.851C13.215 15.294 12.777 15.641 12.391 15.443L8 13.187L3.611 15.443H3.612Z" fill="black"/>
</g>
<g clip-path="url(#clip1_11_417)">
<path d="M23.612 15.443C23.226 15.641 22.788 15.294 22.866 14.851L23.696 10.121L20.173 6.765C19.844 6.451 20.015 5.877 20.456 5.815L25.354 5.119L27.538 0.791996C27.735 0.401996 28.268 0.401996 28.465 0.791996L30.649 5.119L35.547 5.815C35.988 5.877 36.159 6.451 35.829 6.765L32.307 10.121L33.137 14.851C33.215 15.294 32.777 15.641 32.391 15.443L28 13.187L23.611 15.443H23.612Z" fill="black"/>
</g>
<g clip-path="url(#clip2_11_417)">
<path d="M43.612 15.443C43.226 15.641 42.788 15.294 42.866 14.851L43.696 10.121L40.173 6.765C39.844 6.451 40.015 5.877 40.456 5.815L45.354 5.119L47.538 0.791996C47.735 0.401996 48.268 0.401996 48.465 0.791996L50.649 5.119L55.547 5.815C55.988 5.877 56.159 6.451 55.829 6.765L52.307 10.121L53.137 14.851C53.215 15.294 52.777 15.641 52.391 15.443L48 13.187L43.611 15.443H43.612Z" fill="black"/>
</g>
<g clip-path="url(#clip3_11_417)">
<path d="M63.612 15.443C63.226 15.641 62.788 15.294 62.866 14.851L63.696 10.121L60.173 6.765C59.844 6.451 60.015 5.877 60.456 5.815L65.354 5.119L67.538 0.791996C67.735 0.401996 68.268 0.401996 68.465 0.791996L70.649 5.119L75.547 5.815C75.988 5.877 76.159 6.451 75.829 6.765L72.307 10.121L73.137 14.851C73.215 15.294 72.777 15.641 72.391 15.443L68 13.187L63.611 15.443H63.612Z" fill="black"/>
</g>
<g clip-path="url(#clip4_11_417)">
<path d="M85.354 5.119L87.538 0.792C87.5799 0.704954 87.6455 0.631433 87.7272 0.57981C87.8088 0.528186 87.9034 0.500533 88 0.5C88.183 0.5 88.366 0.597 88.465 0.792L90.649 5.119L95.547 5.815C95.6691 5.83419 95.7808 5.89491 95.8633 5.98691C95.9459 6.07891 95.9941 6.19655 96 6.32C96.007 6.40219 95.9953 6.48489 95.9659 6.56194C95.9365 6.63899 95.89 6.7084 95.83 6.765L92.307 10.121L93.137 14.851C93.215 15.294 92.777 15.641 92.391 15.443L88 13.187L83.611 15.443C83.5651 15.4668 83.5159 15.4837 83.465 15.493C83.123 15.553 82.797 15.239 82.865 14.851L83.695 10.121L80.173 6.765C80.1182 6.7132 80.0747 6.65069 80.0451 6.58137C80.0155 6.51204 80.0005 6.43737 80.001 6.362C80.0011 6.25544 80.0305 6.15095 80.086 6.06C80.1254 5.99407 80.1791 5.93783 80.2431 5.89542C80.3072 5.85302 80.3799 5.82553 80.456 5.815L85.354 5.119ZM88 12.027C88.0807 12.0267 88.1603 12.0459 88.232 12.083L91.918 13.977L91.224 10.02C91.2076 9.929 91.2138 9.83536 91.2421 9.74731C91.2703 9.65926 91.3197 9.57949 91.386 9.515L94.293 6.745L90.241 6.169C90.1571 6.15633 90.0775 6.12351 90.0091 6.07335C89.9406 6.02319 89.8854 5.95719 89.848 5.881L88.001 2.223L88 2.226V12.026V12.027Z" fill="black"/>
</g>
<defs>
<clipPath id="clip0_11_417">
<rect width="16" height="16" fill="white"/>
</clipPath>
<clipPath id="clip1_11_417">
<rect width="16" height="16" fill="white" transform="translate(20)"/>
</clipPath>
<clipPath id="clip2_11_417">
<rect width="16" height="16" fill="white" transform="translate(40)"/>
</clipPath>
<clipPath id="clip3_11_417">
<rect width="16" height="16" fill="white" transform="translate(60)"/>
</clipPath>
<clipPath id="clip4_11_417">
<rect width="16" height="16" fill="white" transform="translate(80)"/>
</clipPath>
</defs>
</svg>
