<svg width="37" height="37" viewBox="0 0 37 37" fill="none" xmlns="http://www.w3.org/2000/svg">
<path d="M18.5 19.4866C17.9494 19.4888 17.4147 19.6717 16.9782 20.0073C16.5416 20.3429 16.2274 20.8125 16.0838 21.3441C15.9402 21.8756 15.9751 22.4396 16.1833 22.9494C16.3914 23.4591 16.7612 23.8864 17.2358 24.1656V27.75H19.795V24.1656C20.1705 23.9435 20.4821 23.628 20.6996 23.2498C20.917 22.8715 21.0329 22.4435 21.036 22.0072V22.0072C21.036 21.6749 20.9703 21.3459 20.8427 21.0391C20.715 20.7322 20.528 20.4537 20.2923 20.2194C20.0566 19.9852 19.7769 19.7998 19.4693 19.674C19.1617 19.5483 18.8323 19.4846 18.5 19.4866V19.4866Z" stroke="black" stroke-opacity="0.5" stroke-width="2" stroke-linecap="round" stroke-linejoin="round"/>
<path d="M27.9735 13.6978H9.01872C7.17961 13.6978 5.68872 15.1886 5.68872 17.0278V30.2013C5.68872 32.0404 7.17961 33.5313 9.01872 33.5313H27.9735C29.8126 33.5313 31.3035 32.0404 31.3035 30.2013V17.0278C31.3035 15.1886 29.8126 13.6978 27.9735 13.6978Z" stroke="black" stroke-opacity="0.5" stroke-width="2" stroke-linecap="round" stroke-linejoin="round"/>
<path d="M10.2906 13.6977V11.6858C10.2906 9.50653 11.1564 7.41648 12.6974 5.87548C14.2384 4.33448 16.3284 3.46875 18.5077 3.46875C20.687 3.46875 22.7771 4.33448 24.3181 5.87548C25.8591 7.41648 26.7248 9.50653 26.7248 11.6858V13.6977" stroke="black" stroke-opacity="0.5" stroke-width="2" stroke-linecap="round" stroke-linejoin="round"/>
</svg>
