<svg width="57" height="57" viewBox="0 0 57 57" fill="none" xmlns="http://www.w3.org/2000/svg">
<path d="M28.5 0C44.2142 0 57 10.374 57 23.1278C57 28.2328 55.0228 32.8284 50.8903 37.3564C44.9124 44.2391 31.5424 52.6217 28.5 53.9042C25.5431 55.1511 25.8851 53.2024 26.0205 52.4329L26.0312 52.3687L26.4373 49.9284C26.5335 49.2017 26.6332 48.0724 26.3447 47.3527C26.0241 46.5583 24.7629 46.1451 23.8367 45.9456C10.1389 44.1394 0 34.5598 0 23.1278C0 10.374 12.7894 0 28.5 0ZM17.8909 27.3814H12.4581V17.5204C12.4581 17.3736 12.4 17.2328 12.2965 17.1287C12.1931 17.0245 12.0527 16.9656 11.9059 16.9646H9.90375C9.83077 16.9646 9.7585 16.979 9.69107 17.0069C9.62365 17.0349 9.56238 17.0758 9.51078 17.1274C9.45917 17.179 9.41823 17.2403 9.3903 17.3077C9.36237 17.3751 9.348 17.4474 9.348 17.5204V29.9393C9.348 30.0853 9.40856 30.2242 9.50475 30.3204V30.324L9.51188 30.3311L9.519 30.3382C9.62231 30.4376 9.76041 30.4926 9.90375 30.4914H17.8909C18.1972 30.4914 18.4431 30.2421 18.4431 29.9357V27.9407C18.4435 27.8677 18.4296 27.7953 18.4021 27.7277C18.3746 27.6601 18.3341 27.5986 18.2828 27.5467C18.2315 27.4947 18.1705 27.4534 18.1033 27.425C18.036 27.3967 17.9639 27.3818 17.8909 27.3814V27.3814ZM20.7088 16.9646C20.5614 16.9646 20.4201 17.0232 20.3158 17.1274C20.2116 17.2316 20.1531 17.373 20.1531 17.5204V29.9393C20.1531 30.2456 20.4024 30.4914 20.7088 30.4914H22.7109C23.0173 30.4914 23.2631 30.2421 23.2631 29.9393V17.5204C23.2631 17.3736 23.2051 17.2328 23.1016 17.1287C22.9982 17.0245 22.8577 16.9656 22.7109 16.9646H20.7088ZM34.4707 16.9646C34.3234 16.9646 34.182 17.0232 34.0778 17.1274C33.9736 17.2316 33.915 17.373 33.915 17.5204V24.8947L28.2257 17.214C28.2113 17.1953 28.1958 17.1775 28.1794 17.1606V17.157C28.1681 17.1445 28.1562 17.1326 28.1438 17.1214L28.1331 17.1107C28.1208 17.099 28.1077 17.0883 28.0939 17.0786H28.0903L28.0725 17.0644L28.0618 17.0573C28.0562 17.0531 28.0503 17.0495 28.044 17.0466L28.0155 17.0288H28.0084L27.9977 17.0216L27.9621 17.0074L27.9478 17.0002C27.9361 16.996 27.9243 16.9925 27.9122 16.9896H27.9051L27.8944 16.986L27.8623 16.9789H27.8409L27.8302 16.9753H27.816L27.8089 16.9717H25.764C25.6172 16.9717 25.4764 17.0298 25.3723 17.1333C25.2682 17.2367 25.2092 17.3772 25.2083 17.5239V29.9428C25.2083 30.2492 25.4576 30.495 25.764 30.495H27.759C28.0689 30.495 28.3183 30.2456 28.3183 29.9428V22.5684L34.0183 30.2634C34.0562 30.3165 34.1033 30.3623 34.1573 30.3988L34.1608 30.4024L34.1964 30.4237L34.2107 30.4309C34.2199 30.4363 34.2294 30.441 34.2392 30.4451L34.2641 30.4558L34.2819 30.4629C34.2937 30.4669 34.3056 30.4704 34.3176 30.4736H34.3282C34.3746 30.4869 34.4225 30.4941 34.4707 30.495H36.4658C36.7757 30.495 37.0251 30.2456 37.0251 29.9428V17.5204C37.0251 17.373 36.9665 17.2316 36.8623 17.1274C36.7581 17.0232 36.6167 16.9646 36.4693 16.9646H34.4707V16.9646ZM48.0617 19.5189V17.5239C48.0622 17.451 48.0482 17.3786 48.0207 17.311C47.9933 17.2434 47.9527 17.1819 47.9014 17.1299C47.8502 17.078 47.7892 17.0367 47.7219 17.0083C47.6547 16.9799 47.5825 16.9651 47.5095 16.9646H39.5224C39.3786 16.9648 39.2406 17.021 39.1376 17.1214H39.1341L39.1305 17.1285L39.1234 17.1392C39.0239 17.2413 38.9677 17.3778 38.9666 17.5204V29.9393C38.9666 30.0853 39.0272 30.2242 39.1234 30.3204L39.1305 30.3311L39.1376 30.3382C39.2411 30.4373 39.3791 30.4922 39.5224 30.4914H47.5095C47.8159 30.4914 48.0617 30.2421 48.0617 29.9357V27.9407C48.0622 27.8677 48.0482 27.7953 48.0207 27.7277C47.9933 27.6601 47.9527 27.5986 47.9014 27.5467C47.8502 27.4947 47.7892 27.4534 47.7219 27.425C47.6547 27.3967 47.5825 27.3818 47.5095 27.3814H42.0731V25.2831H47.5059C47.8123 25.2831 48.0581 25.0337 48.0581 24.7273V22.7323C48.0586 22.6593 48.0447 22.587 48.0172 22.5194C47.9897 22.4518 47.9491 22.3902 47.8979 22.3383C47.8466 22.2864 47.7856 22.245 47.7183 22.2167C47.6511 22.1883 47.5789 22.1735 47.5059 22.173H42.0731V20.0747H47.5059C47.8123 20.0747 48.0581 19.8253 48.0581 19.5189H48.0617Z" fill="#18FF04"/>
</svg>
