<svg width="149" height="54" viewBox="0 0 149 54" fill="none" xmlns="http://www.w3.org/2000/svg">
<path d="M74.7933 33V14.8182H86.6186V17.5792H78.087V22.5153H86.006V25.2763H78.087V30.239H86.6896V33H74.7933ZM102.017 19.3636L97.161 33H93.6099L88.7537 19.3636H92.1806L95.3145 29.4933H95.4565L98.5993 19.3636H102.017ZM109.814 33.2663C108.447 33.2663 107.266 32.9822 106.272 32.4141C105.284 31.84 104.523 31.0291 103.99 29.9815C103.458 28.928 103.191 27.6881 103.191 26.2617C103.191 24.859 103.458 23.628 103.99 22.5685C104.529 21.5032 105.281 20.6746 106.245 20.0827C107.21 19.485 108.343 19.1861 109.646 19.1861C110.486 19.1861 111.279 19.3222 112.025 19.5945C112.776 19.8608 113.439 20.2751 114.013 20.8374C114.593 21.3996 115.049 22.1158 115.381 22.9858C115.712 23.8499 115.878 24.8797 115.878 26.0753V27.0607H104.701V24.8945H112.797C112.791 24.279 112.658 23.7315 112.398 23.2521C112.137 22.7668 111.773 22.3851 111.306 22.1069C110.844 21.8287 110.305 21.6896 109.69 21.6896C109.033 21.6896 108.456 21.8494 107.959 22.169C107.462 22.4827 107.074 22.897 106.796 23.4119C106.523 23.9209 106.384 24.4802 106.378 25.0898V26.9808C106.378 27.7739 106.523 28.4545 106.813 29.0227C107.103 29.585 107.509 30.017 108.03 30.3189C108.551 30.6148 109.16 30.7628 109.859 30.7628C110.326 30.7628 110.749 30.6977 111.128 30.5675C111.507 30.4313 111.835 30.2331 112.114 29.9727C112.392 29.7122 112.602 29.3897 112.744 29.005L115.745 29.3423C115.555 30.1354 115.194 30.8279 114.661 31.4197C114.135 32.0057 113.46 32.4614 112.637 32.7869C111.815 33.1065 110.874 33.2663 109.814 33.2663ZM121.81 25.0099V33H118.597V19.3636H121.668V21.6808H121.828C122.142 20.9173 122.642 20.3106 123.328 19.8608C124.021 19.411 124.876 19.1861 125.894 19.1861C126.835 19.1861 127.655 19.3873 128.353 19.7898C129.058 20.1922 129.602 20.7752 129.987 21.5387C130.377 22.3022 130.57 23.2285 130.564 24.3175V33H127.35V24.8146C127.35 23.9032 127.113 23.19 126.64 22.6751C126.172 22.1602 125.524 21.9027 124.696 21.9027C124.133 21.9027 123.633 22.027 123.195 22.2756C122.763 22.5182 122.423 22.8704 122.174 23.332C121.932 23.7937 121.81 24.353 121.81 25.0099ZM140.64 19.3636V21.8494H132.801V19.3636H140.64ZM134.737 16.0966H137.95V28.8984C137.95 29.3305 138.015 29.6619 138.146 29.8928C138.282 30.1177 138.459 30.2715 138.678 30.3544C138.897 30.4373 139.14 30.4787 139.406 30.4787C139.607 30.4787 139.791 30.4639 139.957 30.4343C140.128 30.4047 140.259 30.3781 140.347 30.3544L140.889 32.8668C140.717 32.926 140.472 32.9911 140.152 33.0621C139.838 33.1332 139.454 33.1746 138.998 33.1864C138.193 33.2101 137.468 33.0888 136.823 32.8224C136.178 32.5502 135.666 32.13 135.287 31.5618C134.914 30.9936 134.731 30.2834 134.737 29.4311V16.0966Z" fill="#65B5FF"/>
<path d="M43.875 23.625H40.5V27H43.875C45.2172 27.0013 46.5041 27.5351 47.4532 28.4843C48.4024 29.4334 48.9362 30.7203 48.9375 32.0625V38.8125H52.3125V32.0625C52.3098 29.8256 51.42 27.681 49.8383 26.0992C48.2565 24.5175 46.1119 23.6277 43.875 23.625ZM40.5 6.75C41.5013 6.75 42.48 7.04691 43.3126 7.60319C44.1451 8.15946 44.794 8.95011 45.1771 9.87517C45.5603 10.8002 45.6606 11.8181 45.4652 12.8001C45.2699 13.7822 44.7877 14.6842 44.0797 15.3922C43.3717 16.1002 42.4697 16.5824 41.4876 16.7777C40.5056 16.9731 39.4877 16.8728 38.5627 16.4896C37.6376 16.1065 36.847 15.4576 36.2907 14.6251C35.7344 13.7926 35.4375 12.8138 35.4375 11.8125C35.4375 10.4698 35.9709 9.18217 36.9203 8.23277C37.8697 7.28337 39.1573 6.75 40.5 6.75M40.5 3.375C38.8312 3.375 37.1999 3.86985 35.8124 4.79697C34.4248 5.7241 33.3434 7.04186 32.7048 8.58361C32.0662 10.1254 31.8991 11.8219 32.2246 13.4586C32.5502 15.0953 33.3538 16.5987 34.5338 17.7787C35.7138 18.9587 37.2172 19.7623 38.8539 20.0879C40.4906 20.4134 42.1871 20.2463 43.7289 19.6077C45.2706 18.9691 46.5884 17.8877 47.5155 16.5001C48.4427 15.1126 48.9375 13.4813 48.9375 11.8125C48.9375 9.57474 48.0486 7.42862 46.4662 5.84629C44.8839 4.26395 42.7378 3.375 40.5 3.375V3.375ZM38.8125 50.625H35.4375V47.25C35.4362 45.9078 34.9024 44.6209 33.9532 43.6718C33.0041 42.7226 31.7172 42.1888 30.375 42.1875H23.625C22.2828 42.1888 20.9959 42.7226 20.0468 43.6718C19.0976 44.6209 18.5638 45.9078 18.5625 47.25V50.625H15.1875V47.25C15.1902 45.0131 16.08 42.8685 17.6617 41.2867C19.2435 39.705 21.3881 38.8152 23.625 38.8125H30.375C32.6119 38.8152 34.7565 39.705 36.3383 41.2867C37.92 42.8685 38.8098 45.0131 38.8125 47.25V50.625ZM27 21.9375C28.0013 21.9375 28.98 22.2344 29.8126 22.7907C30.6451 23.347 31.294 24.1376 31.6771 25.0627C32.0603 25.9877 32.1606 27.0056 31.9652 27.9876C31.7699 28.9697 31.2877 29.8717 30.5797 30.5797C29.8717 31.2877 28.9697 31.7699 27.9876 31.9652C27.0056 32.1606 25.9877 32.0603 25.0627 31.6771C24.1376 31.294 23.347 30.6451 22.7907 29.8126C22.2344 28.98 21.9375 28.0013 21.9375 27C21.9375 25.6573 22.4709 24.3697 23.4203 23.4203C24.3697 22.4709 25.6573 21.9375 27 21.9375M27 18.5625C25.3312 18.5625 23.6999 19.0574 22.3124 19.9845C20.9248 20.9116 19.8434 22.2294 19.2048 23.7711C18.5662 25.3129 18.3991 27.0094 18.7246 28.6461C19.0502 30.2828 19.8538 31.7862 21.0338 32.9662C22.2138 34.1462 23.7172 34.9498 25.3539 35.2754C26.9906 35.6009 28.6871 35.4338 30.2289 34.7952C31.7706 34.1566 33.0884 33.0752 34.0155 31.6876C34.9427 30.3001 35.4375 28.6688 35.4375 27C35.4375 24.7622 34.5486 22.6161 32.9662 21.0338C31.3839 19.4514 29.2378 18.5625 27 18.5625ZM13.5 23.625H10.125C7.88806 23.6277 5.7435 24.5175 4.16175 26.0992C2.57999 27.681 1.69018 29.8256 1.6875 32.0625V38.8125H5.0625V32.0625C5.06384 30.7203 5.59764 29.4334 6.54675 28.4843C7.49586 27.5351 8.78275 27.0013 10.125 27H13.5V23.625ZM13.5 6.75C14.5013 6.75 15.4801 7.04691 16.3126 7.60319C17.1451 8.15946 17.794 8.95011 18.1771 9.87517C18.5603 10.8002 18.6606 11.8181 18.4652 12.8001C18.2699 13.7822 17.7877 14.6842 17.0797 15.3922C16.3717 16.1002 15.4697 16.5824 14.4876 16.7777C13.5056 16.9731 12.4877 16.8728 11.5627 16.4896C10.6376 16.1065 9.84696 15.4576 9.29069 14.6251C8.73441 13.7926 8.4375 12.8138 8.4375 11.8125C8.4375 10.4698 8.97087 9.18217 9.92027 8.23277C10.8697 7.28337 12.1573 6.75 13.5 6.75M13.5 3.375C11.8312 3.375 10.1999 3.86985 8.81238 4.79697C7.42484 5.7241 6.34338 7.04186 5.70477 8.58361C5.06615 10.1254 4.89906 11.8219 5.22462 13.4586C5.55019 15.0953 6.35378 16.5987 7.53379 17.7787C8.71379 18.9587 10.2172 19.7623 11.8539 20.0879C13.4906 20.4134 15.1871 20.2463 16.7289 19.6077C18.2706 18.9691 19.5884 17.8877 20.5155 16.5001C21.4426 15.1126 21.9375 13.4813 21.9375 11.8125C21.9375 9.57474 21.0486 7.42862 19.4662 5.84629C17.8839 4.26395 15.7378 3.375 13.5 3.375V3.375Z" fill="#65B5FF"/>
</svg>
