<svg width="64" height="64" viewBox="0 0 64 64" fill="none" xmlns="http://www.w3.org/2000/svg">
<path d="M58.148 26.7773H56V26.6666H32V37.3333H47.0707C44.872 43.5426 38.964 48 32 48C23.164 48 16 40.836 16 32C16 23.164 23.164 16 32 16C36.0787 16 39.7893 17.5386 42.6147 20.052L50.1573 12.5093C45.3947 8.07065 39.024 5.33331 32 5.33331C17.2733 5.33331 5.33334 17.2733 5.33334 32C5.33334 46.7266 17.2733 58.6666 32 58.6666C46.7267 58.6666 58.6667 46.7266 58.6667 32C58.6667 30.212 58.4827 28.4666 58.148 26.7773Z" fill="#FFC107"/>
<path d="M8.40799 19.588L17.1693 26.0133C19.54 20.144 25.2813 16 32 16C36.0787 16 39.7893 17.5386 42.6147 20.052L50.1573 12.5093C45.3947 8.07065 39.024 5.33331 32 5.33331C21.7573 5.33331 12.8747 11.116 8.40799 19.588Z" fill="#FF3D00"/>
<path d="M32 58.6667C38.888 58.6667 45.1467 56.0307 49.8787 51.744L41.6253 44.76C38.8581 46.8645 35.4766 48.0028 32 48C25.064 48 19.1747 43.5773 16.956 37.4053L8.26001 44.1053C12.6733 52.7413 21.636 58.6667 32 58.6667Z" fill="#4CAF50"/>
<path d="M58.148 26.7774H56V26.6667H32V37.3334H47.0707C46.0189 40.2886 44.1245 42.8709 41.6213 44.7614L41.6253 44.7587L49.8787 51.7427C49.2947 52.2734 58.6667 45.3334 58.6667 32C58.6667 30.212 58.4827 28.4667 58.148 26.7774Z" fill="#1976D2"/>
</svg>
