<svg width="191" height="53" viewBox="0 0 191 53" fill="none" xmlns="http://www.w3.org/2000/svg">
<path d="M69.7933 35V16.8182H81.4411V19.5792H73.087V24.5153H80.642V27.2763H73.087V35H69.7933ZM84.1044 35V21.3636H87.2205V23.6364H87.3626C87.6112 22.8492 88.0373 22.2425 88.641 21.8164C89.2506 21.3844 89.946 21.1683 90.7273 21.1683C90.9048 21.1683 91.1031 21.1772 91.3221 21.195C91.547 21.2068 91.7334 21.2275 91.8814 21.2571V24.2134C91.7453 24.1661 91.5292 24.1246 91.2333 24.0891C90.9433 24.0477 90.6622 24.027 90.3899 24.027C89.804 24.027 89.2772 24.1542 88.8097 24.4087C88.348 24.6573 87.984 25.0036 87.7177 25.4474C87.4513 25.8913 87.3182 26.4033 87.3182 26.9833V35H84.1044ZM99.4919 35.2663C98.1247 35.2663 96.944 34.9822 95.9497 34.4141C94.9613 33.84 94.2007 33.0291 93.6681 31.9815C93.1354 30.928 92.8691 29.6881 92.8691 28.2617C92.8691 26.859 93.1354 25.628 93.6681 24.5685C94.2066 23.5032 94.9583 22.6746 95.923 22.0827C96.8878 21.485 98.0212 21.1861 99.3232 21.1861C100.164 21.1861 100.957 21.3222 101.703 21.5945C102.454 21.8608 103.117 22.2751 103.691 22.8374C104.271 23.3996 104.727 24.1158 105.058 24.9858C105.39 25.8499 105.555 26.8797 105.555 28.0753V29.0607H94.3783V26.8945H102.475C102.469 26.279 102.336 25.7315 102.075 25.2521C101.815 24.7668 101.451 24.3851 100.983 24.1069C100.522 23.8287 99.9832 23.6896 99.3676 23.6896C98.7107 23.6896 98.1336 23.8494 97.6365 24.169C97.1393 24.4827 96.7516 24.897 96.4735 25.4119C96.2012 25.9209 96.0621 26.4802 96.0562 27.0898V28.9808C96.0562 29.7739 96.2012 30.4545 96.4912 31.0227C96.7812 31.585 97.1866 32.017 97.7075 32.3189C98.2283 32.6148 98.8379 32.7628 99.5363 32.7628C100.004 32.7628 100.427 32.6977 100.806 32.5675C101.185 32.4313 101.513 32.2331 101.791 31.9727C102.069 31.7122 102.28 31.3897 102.422 31.005L105.422 31.3423C105.233 32.1354 104.872 32.8279 104.339 33.4197C103.812 34.0057 103.138 34.4614 102.315 34.7869C101.492 35.1065 100.551 35.2663 99.4919 35.2663ZM114.311 35.2663C112.944 35.2663 111.763 34.9822 110.769 34.4141C109.781 33.84 109.02 33.0291 108.487 31.9815C107.955 30.928 107.688 29.6881 107.688 28.2617C107.688 26.859 107.955 25.628 108.487 24.5685C109.026 23.5032 109.778 22.6746 110.742 22.0827C111.707 21.485 112.84 21.1861 114.143 21.1861C114.983 21.1861 115.776 21.3222 116.522 21.5945C117.273 21.8608 117.936 22.2751 118.51 22.8374C119.09 23.3996 119.546 24.1158 119.878 24.9858C120.209 25.8499 120.375 26.8797 120.375 28.0753V29.0607H109.198V26.8945H117.294C117.288 26.279 117.155 25.7315 116.895 25.2521C116.634 24.7668 116.27 24.3851 115.803 24.1069C115.341 23.8287 114.802 23.6896 114.187 23.6896C113.53 23.6896 112.953 23.8494 112.456 24.169C111.959 24.4827 111.571 24.897 111.293 25.4119C111.021 25.9209 110.881 26.4802 110.876 27.0898V28.9808C110.876 29.7739 111.021 30.4545 111.311 31.0227C111.601 31.585 112.006 32.017 112.527 32.3189C113.048 32.6148 113.657 32.7628 114.356 32.7628C114.823 32.7628 115.246 32.6977 115.625 32.5675C116.004 32.4313 116.332 32.2331 116.611 31.9727C116.889 31.7122 117.099 31.3897 117.241 31.005L120.242 31.3423C120.052 32.1354 119.691 32.8279 119.159 33.4197C118.632 34.0057 117.957 34.4614 117.134 34.7869C116.312 35.1065 115.371 35.2663 114.311 35.2663ZM126.307 16.8182V35H123.094V16.8182H126.307ZM133.536 35.2752C132.672 35.2752 131.894 35.1213 131.201 34.8136C130.515 34.4999 129.97 34.0382 129.568 33.4286C129.171 32.819 128.973 32.0674 128.973 31.1737C128.973 30.4042 129.115 29.768 129.399 29.2649C129.683 28.7618 130.071 28.3594 130.562 28.0575C131.053 27.7557 131.607 27.5278 132.222 27.3739C132.844 27.2141 133.486 27.0987 134.149 27.0277C134.948 26.9448 135.596 26.8709 136.093 26.8058C136.59 26.7347 136.951 26.6282 137.176 26.4862C137.407 26.3382 137.522 26.1103 137.522 25.8026V25.7493C137.522 25.0805 137.324 24.5626 136.928 24.1957C136.531 23.8287 135.96 23.6452 135.214 23.6452C134.427 23.6452 133.803 23.8169 133.341 24.1602C132.885 24.5034 132.577 24.9089 132.418 25.3764L129.417 24.9503C129.654 24.1217 130.044 23.4292 130.589 22.8729C131.133 22.3106 131.799 21.8904 132.586 21.6122C133.373 21.3281 134.243 21.1861 135.196 21.1861C135.853 21.1861 136.507 21.263 137.158 21.4169C137.809 21.5708 138.404 21.8253 138.943 22.1804C139.481 22.5296 139.913 23.006 140.239 23.6097C140.57 24.2134 140.736 24.968 140.736 25.8736V35H137.647V33.1268H137.54C137.345 33.5056 137.07 33.8607 136.714 34.1921C136.365 34.5176 135.924 34.781 135.392 34.9822C134.865 35.1776 134.246 35.2752 133.536 35.2752ZM134.371 32.9137C135.016 32.9137 135.575 32.7865 136.049 32.532C136.522 32.2715 136.886 31.9283 137.141 31.5021C137.401 31.076 137.531 30.6114 137.531 30.1083V28.5014C137.431 28.5843 137.259 28.6612 137.016 28.7322C136.78 28.8033 136.513 28.8654 136.217 28.9187C135.921 28.9719 135.628 29.0193 135.338 29.0607C135.048 29.1022 134.797 29.1377 134.584 29.1673C134.104 29.2324 133.675 29.3389 133.297 29.4869C132.918 29.6348 132.619 29.842 132.4 30.1083C132.181 30.3687 132.071 30.7061 132.071 31.1204C132.071 31.7122 132.287 32.1591 132.719 32.4609C133.152 32.7628 133.702 32.9137 134.371 32.9137ZM147.181 27.0099V35H143.968V21.3636H147.039V23.6808H147.199C147.513 22.9173 148.013 22.3106 148.7 21.8608C149.392 21.411 150.247 21.1861 151.265 21.1861C152.206 21.1861 153.026 21.3873 153.724 21.7898C154.429 22.1922 154.973 22.7752 155.358 23.5387C155.749 24.3022 155.941 25.2285 155.935 26.3175V35H152.721V26.8146C152.721 25.9032 152.484 25.19 152.011 24.6751C151.543 24.1602 150.895 23.9027 150.067 23.9027C149.504 23.9027 149.004 24.027 148.566 24.2756C148.134 24.5182 147.794 24.8704 147.545 25.332C147.303 25.7937 147.181 26.353 147.181 27.0099ZM165.15 35.2663C163.789 35.2663 162.62 34.9674 161.643 34.3697C160.673 33.7719 159.924 32.9463 159.397 31.8928C158.877 30.8333 158.616 29.6141 158.616 28.2351C158.616 26.8501 158.882 25.628 159.415 24.5685C159.948 23.5032 160.699 22.6746 161.67 22.0827C162.647 21.485 163.801 21.1861 165.132 21.1861C166.239 21.1861 167.219 21.3903 168.071 21.7987C168.929 22.2011 169.613 22.7723 170.122 23.5121C170.631 24.246 170.921 25.1042 170.992 26.0866H167.92C167.796 25.4297 167.5 24.8822 167.032 24.4442C166.571 24.0004 165.952 23.7784 165.177 23.7784C164.52 23.7784 163.943 23.956 163.446 24.3111C162.949 24.6603 162.561 25.1634 162.283 25.8203C162.01 26.4773 161.874 27.2644 161.874 28.1818C161.874 29.111 162.01 29.91 162.283 30.5788C162.555 31.2417 162.937 31.7537 163.428 32.1147C163.925 32.4698 164.508 32.6474 165.177 32.6474C165.65 32.6474 166.074 32.5586 166.446 32.381C166.825 32.1976 167.142 31.9342 167.396 31.5909C167.651 31.2476 167.825 30.8304 167.92 30.3391H170.992C170.915 31.3039 170.631 32.1591 170.14 32.9048C169.648 33.6446 168.98 34.2247 168.133 34.6449C167.287 35.0592 166.292 35.2663 165.15 35.2663ZM179.668 35.2663C178.301 35.2663 177.12 34.9822 176.125 34.4141C175.137 33.84 174.377 33.0291 173.844 31.9815C173.311 30.928 173.045 29.6881 173.045 28.2617C173.045 26.859 173.311 25.628 173.844 24.5685C174.382 23.5032 175.134 22.6746 176.099 22.0827C177.064 21.485 178.197 21.1861 179.499 21.1861C180.339 21.1861 181.133 21.3222 181.878 21.5945C182.63 21.8608 183.293 22.2751 183.867 22.8374C184.447 23.3996 184.903 24.1158 185.234 24.9858C185.566 25.8499 185.731 26.8797 185.731 28.0753V29.0607H174.554V26.8945H182.651C182.645 26.279 182.512 25.7315 182.251 25.2521C181.991 24.7668 181.627 24.3851 181.159 24.1069C180.698 23.8287 180.159 23.6896 179.543 23.6896C178.886 23.6896 178.309 23.8494 177.812 24.169C177.315 24.4827 176.927 24.897 176.649 25.4119C176.377 25.9209 176.238 26.4802 176.232 27.0898V28.9808C176.232 29.7739 176.377 30.4545 176.667 31.0227C176.957 31.585 177.362 32.017 177.883 32.3189C178.404 32.6148 179.014 32.7628 179.712 32.7628C180.18 32.7628 180.603 32.6977 180.982 32.5675C181.36 32.4313 181.689 32.2331 181.967 31.9727C182.245 31.7122 182.455 31.3897 182.597 31.005L185.598 31.3423C185.409 32.1354 185.048 32.8279 184.515 33.4197C183.988 34.0057 183.314 34.4614 182.491 34.7869C181.668 35.1065 180.727 35.2663 179.668 35.2663Z" fill="#65B5FF"/>
<path d="M6.62501 48.5833C5.41043 48.5833 4.37104 48.1512 3.50684 47.287C2.64118 46.4214 2.20834 45.3812 2.20834 44.1666V19.875H6.62501V44.1666H44.1667V48.5833H6.62501ZM15.4583 39.75C14.2438 39.75 13.2044 39.3179 12.3402 38.4537C11.4745 37.588 11.0417 36.5479 11.0417 35.3333V11.0416H22.0833V6.62498C22.0833 5.4104 22.5162 4.37027 23.3818 3.5046C24.246 2.64041 25.2854 2.20831 26.5 2.20831H35.3333C36.5479 2.20831 37.5881 2.64041 38.4537 3.5046C39.3179 4.37027 39.75 5.4104 39.75 6.62498V11.0416H50.7917V35.3333C50.7917 36.5479 50.3596 37.588 49.4954 38.4537C48.6297 39.3179 47.5896 39.75 46.375 39.75H15.4583ZM26.5 11.0416H35.3333V6.62498H26.5V11.0416Z" fill="#65B5FF"/>
</svg>
