<svg width="235" height="40" viewBox="0 0 235 40" fill="none" xmlns="http://www.w3.org/2000/svg">
<path d="M37.5708 13.823C37.5708 23.9735 29.2265 32.2058 18.93 32.2058C8.6335 32.2058 0.284325 23.9784 0.284325 13.823C0.284325 8.56036 2.52862 3.80888 6.13118 0.459473C6.44276 1.21893 6.84683 1.94431 7.32879 2.62101C6.03868 4.93347 5.2987 7.65486 5.2987 10.5759C5.2987 18.9348 11.4036 25.7066 18.9349 25.7066C26.4613 25.7066 32.5711 18.9299 32.5711 10.5759C32.5711 7.65973 31.8262 4.9286 30.5361 2.62101C31.0181 1.94431 31.4221 1.21893 31.7337 0.459473C35.3265 3.80888 37.5708 8.5555 37.5708 13.823Z" fill="#00AEEF"/>
<path d="M51 30.5506L55.7612 1.87134H60.9557L56.9248 26.1935H69.5581L68.8278 30.5506H51Z" fill="black"/>
<path d="M82.5662 30.9742C80.4193 30.9742 78.6375 30.5263 77.2257 29.6208C75.809 28.7202 74.8207 27.4398 74.256 25.7846C73.6913 24.1293 73.5939 22.1723 73.9688 19.9231C74.3339 17.7129 75.0739 15.7655 76.1936 14.0908C77.3133 12.4161 78.7154 11.1066 80.3998 10.1718C82.0842 9.23225 83.9488 8.76489 85.9935 8.76489C87.3177 8.76489 88.5396 8.97911 89.6496 9.40265C90.7596 9.82619 91.6992 10.4834 92.4635 11.3694C93.2278 12.2555 93.7585 13.3849 94.0457 14.7529C94.3378 16.1209 94.3232 17.747 94.0019 19.631L93.7634 21.184H76.1352L76.6658 17.7664H89.4354C89.5961 16.7976 89.5377 15.9311 89.2602 15.1667C88.9827 14.4073 88.5202 13.8085 87.8678 13.3655C87.2155 12.9273 86.3976 12.7082 85.4142 12.7082C84.4259 12.7082 83.4961 12.9663 82.6295 13.4774C81.7629 13.9886 81.0327 14.6458 80.4436 15.4442C79.8546 16.2426 79.4846 17.0897 79.3239 17.9855L78.7494 21.2473C78.5352 22.6007 78.5791 23.7009 78.8809 24.5529C79.1827 25.4048 79.7134 26.0231 80.4631 26.4223C81.2128 26.8215 82.1573 27.0163 83.2867 27.0163C84.0316 27.0163 84.7229 26.9091 85.3606 26.6998C85.9935 26.4905 86.5631 26.1789 87.0694 25.77C87.5757 25.361 87.9895 24.8498 88.3157 24.2413L92.9504 24.7719C92.4392 26.0231 91.6846 27.1136 90.6963 28.0435C89.7081 28.9733 88.525 29.6938 87.1473 30.2001C85.7696 30.7064 84.2458 30.9742 82.5662 30.9742Z" fill="black"/>
<path d="M102.629 30.9839C101.265 30.9839 100.082 30.7405 99.0796 30.2488C98.0767 29.7571 97.3367 29.0317 96.8596 28.0727C96.3825 27.1136 96.2608 25.9257 96.4945 24.5139C96.699 23.3017 97.0933 22.2988 97.6775 21.5053C98.2617 20.7118 98.9774 20.0789 99.8293 19.6018C100.676 19.1247 101.611 18.7596 102.629 18.5113C103.646 18.2581 104.688 18.0829 105.754 17.9806C107.025 17.8492 108.062 17.7275 108.865 17.6155C109.668 17.5035 110.272 17.3331 110.671 17.1043C111.07 16.8755 111.319 16.525 111.411 16.0479V15.9652C111.581 14.9185 111.411 14.1054 110.9 13.5212C110.394 12.9371 109.551 12.6449 108.388 12.6449C107.156 12.6449 106.119 12.9176 105.272 13.458C104.425 13.9983 103.812 14.641 103.432 15.3761L98.841 14.7043C99.4204 13.3995 100.214 12.3042 101.222 11.4181C102.229 10.537 103.393 9.87488 104.717 9.43186C106.036 8.98884 107.448 8.76489 108.953 8.76489C109.99 8.76489 110.997 8.8866 111.976 9.13002C112.954 9.37343 113.826 9.77264 114.585 10.3276C115.345 10.8826 115.905 11.6372 116.26 12.5914C116.615 13.5456 116.674 14.7335 116.44 16.1599L114.045 30.5555H109.172L109.678 27.6004H109.512C109.108 28.1993 108.587 28.7542 107.945 29.2752C107.302 29.7961 106.533 30.2099 105.647 30.5214C104.756 30.8281 103.748 30.9839 102.629 30.9839ZM104.547 27.2597C105.564 27.2597 106.479 27.0552 107.292 26.6511C108.105 26.2471 108.772 25.7067 109.293 25.0348C109.814 24.363 110.14 23.6279 110.272 22.8344L110.691 20.298C110.515 20.4294 110.223 20.5511 109.824 20.6631C109.425 20.7751 108.982 20.8724 108.51 20.9552C108.032 21.0379 107.56 21.1158 107.093 21.1791C106.625 21.2424 106.226 21.3008 105.89 21.3495C105.116 21.4518 104.41 21.6221 103.768 21.8558C103.13 22.0895 102.599 22.4157 102.181 22.8295C101.762 23.2433 101.504 23.7788 101.412 24.4312C101.251 25.3659 101.47 26.0718 102.064 26.544C102.658 27.0211 103.485 27.2597 104.547 27.2597Z" fill="black"/>
<path d="M119.152 30.5505L122.735 9.04229H127.652L127.048 12.6254H127.272C127.861 11.384 128.694 10.4249 129.77 9.74819C130.845 9.07149 132.004 8.73071 133.236 8.73071C133.523 8.73071 133.839 8.74045 134.175 8.75992C134.511 8.77939 134.798 8.81834 135.027 8.87189L134.243 13.5357C134.039 13.4627 133.708 13.3946 133.255 13.3313C132.802 13.2729 132.355 13.2388 131.916 13.2388C130.991 13.2388 130.135 13.4384 129.341 13.8327C128.548 14.2319 127.881 14.7772 127.345 15.4782C126.81 16.1793 126.459 16.9874 126.303 17.9026L124.215 30.5457H119.152V30.5505Z" fill="black"/>
<path d="M141.994 17.9465L139.92 30.5506H134.852L138.435 9.04237H143.279L142.661 12.6985H142.914C143.596 11.496 144.545 10.5369 145.757 9.82617C146.969 9.1154 148.386 8.76001 150.002 8.76001C151.468 8.76001 152.704 9.07645 153.707 9.7142C154.71 10.3471 155.421 11.2672 155.835 12.4745C156.248 13.677 156.312 15.1424 156.024 16.856L153.727 30.5506H148.659L150.801 17.6398C151.034 16.2134 150.854 15.0888 150.255 14.271C149.657 13.4531 148.702 13.0441 147.383 13.0441C146.487 13.0441 145.665 13.2389 144.92 13.6235C144.175 14.0129 143.547 14.5679 143.036 15.2982C142.525 16.0284 142.179 16.9145 141.994 17.9465Z" fill="black"/>
<path d="M174.227 16.52L173.555 20.6922H160.644L161.316 16.52H174.227Z" fill="black"/>
<path d="M177.241 30.5506L180.824 9.04233H185.892L182.308 30.5506H177.241ZM184.1 5.96068C183.297 5.96068 182.625 5.68806 182.085 5.14281C181.544 4.59755 181.31 3.95006 181.384 3.20521C181.447 2.44088 181.792 1.78853 182.411 1.25788C183.029 0.72723 183.745 0.459473 184.548 0.459473C185.361 0.459473 186.028 0.727235 186.559 1.26275C187.084 1.79827 187.323 2.45062 187.264 3.21495C187.201 3.9598 186.86 4.60729 186.242 5.14767C185.629 5.69293 184.913 5.96068 184.1 5.96068Z" fill="black"/>
<path d="M194.689 17.9465L192.615 30.5506H187.547L191.13 9.04237H195.974L195.356 12.6985H195.609C196.29 11.496 197.24 10.5369 198.452 9.82617C199.664 9.1154 201.081 8.76001 202.697 8.76001C204.162 8.76001 205.399 9.07645 206.402 9.7142C207.405 10.3471 208.115 11.2672 208.529 12.4745C208.943 13.677 209.006 15.1424 208.719 16.856L206.421 30.5506H201.353L203.495 17.6398C203.729 16.2134 203.549 15.0888 202.95 14.271C202.351 13.4531 201.397 13.0441 200.078 13.0441C199.182 13.0441 198.359 13.2389 197.615 13.6235C196.87 14.0129 196.242 14.5679 195.73 15.2982C195.219 16.0284 194.874 16.9145 194.689 17.9465Z" fill="black"/>
<path d="M219.571 39.0653C217.74 39.0653 216.212 38.8218 214.985 38.3301C213.758 37.8384 212.813 37.1861 212.146 36.3633C211.48 35.5406 211.075 34.6302 210.929 33.6322L215.691 32.5271C215.832 32.9458 216.056 33.3645 216.372 33.7831C216.684 34.1969 217.146 34.5426 217.76 34.8201C218.373 35.0976 219.196 35.2339 220.233 35.2339C221.669 35.2339 222.925 34.8882 224.001 34.1921C225.077 33.4959 225.739 32.3567 225.987 30.7696L226.63 26.6949H226.377C226.041 27.2158 225.578 27.7561 224.989 28.3063C224.4 28.8564 223.67 29.3189 222.789 29.6937C221.912 30.0686 220.856 30.2536 219.624 30.2536C217.974 30.2536 216.543 29.8641 215.33 29.0852C214.123 28.3063 213.252 27.1379 212.721 25.5849C212.19 24.0319 212.112 22.0797 212.497 19.738C212.891 17.3769 213.617 15.3809 214.673 13.75C215.734 12.1191 217.005 10.8825 218.49 10.0403C219.975 9.19322 221.542 8.77454 223.198 8.77454C224.458 8.77454 225.461 8.98874 226.206 9.41229C226.951 9.83583 227.516 10.347 227.9 10.9409C228.285 11.5349 228.558 12.0899 228.728 12.6156H229.01L229.599 9.0569H234.599L230.987 30.9157C230.69 32.7559 230.003 34.2748 228.928 35.4822C227.852 36.6895 226.508 37.5853 224.887 38.1841C223.266 38.7683 221.494 39.0653 219.571 39.0653ZM221.645 26.2664C222.711 26.2664 223.67 26.0035 224.522 25.4826C225.374 24.9617 226.084 24.2071 226.649 23.2286C227.214 22.2501 227.608 21.0719 227.832 19.6991C228.056 18.3457 228.051 17.1578 227.818 16.1403C227.584 15.1228 227.131 14.3293 226.459 13.7646C225.788 13.1998 224.911 12.9175 223.826 12.9175C222.686 12.9175 221.698 13.2096 220.856 13.7987C220.014 14.3877 219.327 15.191 218.792 16.2133C218.256 17.2357 217.876 18.3944 217.662 19.6942C217.458 21.0086 217.458 22.1624 217.667 23.1458C217.876 24.1292 218.31 24.8984 218.972 25.4437C219.634 25.9938 220.52 26.2664 221.645 26.2664Z" fill="black"/>
</svg>
