<svg width="110" height="24" viewBox="0 0 110 24" fill="none" xmlns="http://www.w3.org/2000/svg">
<g clip-path="url(#clip0_11_384)">
<path d="M110 10.7888V8.82412H107.598V5.77001L107.517 5.7951L105.26 6.49634L105.216 6.51008V8.82412H101.655V7.5351C101.655 6.93488 101.787 6.47539 102.047 6.16928C102.306 5.86644 102.676 5.71263 103.148 5.71263C103.487 5.71263 103.838 5.79379 104.192 5.95372L104.28 5.99386V3.92506L104.239 3.90979C103.909 3.78914 103.46 3.7287 102.905 3.7287C102.204 3.7287 101.567 3.88339 101.012 4.19037C100.465 4.48925 100.014 4.94192 99.7131 5.49423C99.408 6.05146 99.2533 6.69488 99.2533 7.40703V8.82434H97.5806V10.7891H99.2533V19.0654H101.655V10.7888H105.216V16.0483C105.216 18.2144 106.222 19.3123 108.206 19.3123C108.549 19.3103 108.891 19.2717 109.226 19.1971C109.583 19.1192 109.825 19.0414 109.968 18.9582L110 18.9392V16.9564L109.902 17.0221C109.772 17.1104 109.61 17.1824 109.42 17.2359C109.228 17.2904 109.069 17.3179 108.945 17.3179C108.48 17.3179 108.136 17.1907 107.923 16.9396C107.707 16.6865 107.598 16.2434 107.598 15.6238V10.7888H110ZM92.2178 17.3182C91.3462 17.3182 90.6591 17.0245 90.1747 16.4465C89.6876 15.8653 89.4406 15.0371 89.4406 13.9843C89.4406 12.8984 89.6876 12.0486 90.1751 11.4571C90.6596 10.8698 91.3402 10.5715 92.1983 10.5715C93.0308 10.5715 93.6936 10.8563 94.1684 11.4185C94.6456 11.9834 94.8877 12.8264 94.8877 13.925C94.8877 15.0371 94.66 15.8915 94.2109 16.4629C93.7651 17.0302 93.0946 17.3182 92.2178 17.3182ZM92.3248 8.57735C90.6619 8.57735 89.3411 9.07219 88.3996 10.0481C87.4584 11.0243 86.9812 12.3748 86.9812 14.0631C86.9812 15.6665 87.447 16.9562 88.3657 17.8959C89.2844 18.8358 90.5348 19.3119 92.0814 19.3119C93.6934 19.3119 94.9878 18.8103 95.9293 17.8208C96.8703 16.8325 97.3472 15.4946 97.3472 13.8456C97.3472 12.2173 96.8997 10.918 96.0169 9.98463C95.1335 9.05081 93.891 8.57735 92.3248 8.57735ZM83.1093 8.57735C81.9782 8.57735 81.0425 8.87124 80.3277 9.45052C79.6089 10.0333 79.2441 10.7978 79.2441 11.7227C79.2441 12.2033 79.3227 12.6303 79.4778 12.9925C79.6336 13.356 79.8749 13.6758 80.1954 13.9444C80.5134 14.2108 81.0043 14.4899 81.655 14.7735C82.2018 15.0022 82.6098 15.1957 82.8689 15.348C83.1222 15.4974 83.302 15.6475 83.4034 15.7937C83.5021 15.9366 83.5521 16.1326 83.5521 16.3741C83.5521 17.0622 83.0449 17.3969 82.0009 17.3969C81.6136 17.3969 81.1719 17.3149 80.688 17.153C80.2077 16.9935 79.7543 16.76 79.3438 16.4607L79.2441 16.3883V18.7359L79.2806 18.7534C79.6205 18.9126 80.0489 19.0468 80.5538 19.1526C81.0578 19.2582 81.5154 19.3121 81.9133 19.3121C83.1407 19.3121 84.1292 19.0169 84.8502 18.4342C85.5764 17.8472 85.9442 17.0651 85.9442 16.1079C85.9442 15.4178 85.7461 14.8256 85.3555 14.3483C84.9682 13.8748 84.2953 13.44 83.3568 13.0558C82.6092 12.751 82.1301 12.4981 81.9326 12.3039C81.7421 12.1163 81.6454 11.851 81.6454 11.5152C81.6454 11.2171 81.7648 10.9787 82.01 10.7854C82.257 10.5912 82.6008 10.4923 83.0318 10.4923C83.432 10.4923 83.8413 10.5565 84.2484 10.6822C84.6553 10.808 85.0124 10.9767 85.3108 11.1827L85.4088 11.2507V9.02354L85.3712 9.00717C85.0962 8.88717 84.7331 8.78463 84.2927 8.70172C83.8535 8.61924 83.4554 8.57735 83.1093 8.57735ZM72.9837 17.3182C72.1123 17.3182 71.425 17.0245 70.9408 16.4465C70.4535 15.8653 70.2071 15.0371 70.2071 13.9843C70.2071 12.8984 70.4537 12.0486 70.9414 11.4571C71.4255 10.8698 72.1059 10.5715 72.9644 10.5715C73.7969 10.5715 74.4597 10.8563 74.9345 11.4185C75.4117 11.9834 75.6538 12.8264 75.6538 13.925C75.6538 15.0371 75.4261 15.8915 74.9771 16.4629C74.531 17.0302 73.8607 17.3182 72.9837 17.3182ZM73.0909 8.57735C71.4276 8.57735 70.1068 9.07219 69.1657 10.0481C68.2247 11.0243 67.7471 12.3748 67.7471 14.0631C67.7471 15.6672 68.2133 16.9562 69.1318 17.8959C70.0505 18.8358 71.3007 19.3119 72.8477 19.3119C74.4591 19.3119 75.7542 18.8103 76.6956 17.8208C77.6364 16.8325 78.1136 15.4946 78.1136 13.8456C78.1136 12.2173 77.6658 10.918 76.7828 9.98463C75.8992 9.05081 74.6569 8.57735 73.0909 8.57735ZM64.1019 10.5977V8.82412H61.7298V19.0649H64.1017V13.8262C64.1017 12.9353 64.3006 12.2035 64.6931 11.6509C65.0805 11.1048 65.597 10.8279 66.2271 10.8279C66.4409 10.8279 66.6807 10.8637 66.9404 10.9346C67.1976 11.0048 67.3838 11.0812 67.4936 11.1615L67.5933 11.235V8.80666L67.5546 8.78986C67.334 8.69452 67.0214 8.64652 66.6261 8.64652C66.0299 8.64652 65.4964 8.84092 65.0397 9.22383C64.6386 9.56048 64.3485 10.0222 64.127 10.5977H64.1019ZM57.4819 8.57735C56.3937 8.57735 55.4228 8.81452 54.5972 9.28164C53.77 9.74964 53.13 10.4184 52.6948 11.2682C52.2614 12.1163 52.0414 13.1068 52.0414 14.2115C52.0414 15.1789 52.2548 16.0669 52.6763 16.8493C53.0982 17.6332 53.6955 18.2465 54.4513 18.672C55.2063 19.0968 56.0788 19.3121 57.0445 19.3121C58.1718 19.3121 59.1343 19.0832 59.9062 18.632L59.9371 18.6137V16.4068L59.8377 16.4808C59.4826 16.7421 59.0915 16.9488 58.6771 17.0943C58.2577 17.2429 57.8757 17.3179 57.5406 17.3179C56.6096 17.3179 55.8626 17.0223 55.3201 16.4393C54.7766 15.8552 54.5009 15.0355 54.5009 14.0038C54.5009 12.9656 54.7884 12.1248 55.3547 11.504C55.9196 10.8855 56.6681 10.5718 57.5797 10.5718C58.3593 10.5718 59.119 10.8399 59.8377 11.3694L59.9371 11.4427V9.11735L59.9051 9.09903C59.6344 8.94521 59.2657 8.81823 58.8077 8.72201C58.3518 8.62601 57.9058 8.57735 57.4819 8.57735ZM50.4077 8.82412H48.0354V19.0649H50.4077V8.82412ZM49.2459 4.46157C48.8555 4.46157 48.515 4.59663 48.2352 4.8639C47.9542 5.13226 47.8116 5.47001 47.8116 5.86841C47.8116 6.2607 47.9525 6.59212 48.2305 6.85328C48.507 7.11357 48.8486 7.24557 49.2459 7.24557C49.6429 7.24557 49.9858 7.11357 50.2655 6.85372C50.547 6.59212 50.6898 6.2607 50.6898 5.86841C50.6898 5.48397 50.5508 5.1495 50.2771 4.87481C50.0036 4.60055 49.6564 4.46157 49.2459 4.46157ZM43.3274 8.06877V19.0647H45.7482V4.7751H42.3977L38.1389 15.389L34.0061 4.7751H30.5192V19.0649H32.7942V8.06768H32.8724L37.2365 19.0649H38.9531L43.2491 8.06855H43.3274V8.06877Z" fill="#706D6E"/>
<path d="M11.1588 11.3321H0V0H11.1588V11.3321Z" fill="#F1511B"/>
<path d="M23.4796 11.3321H12.3209V0H23.4796V11.3321Z" fill="#80CC28"/>
<path d="M11.1586 23.8488H0V12.5167H11.1586V23.8488Z" fill="#00ADEF"/>
<path d="M23.4796 23.8488H12.3209V12.5167H23.4796V23.8488Z" fill="#FBBC09"/>
</g>
<defs>
<clipPath id="clip0_11_384">
<rect width="110" height="24" fill="white"/>
</clipPath>
</defs>
</svg>
