<svg width="38" height="32" viewBox="0 0 38 32" fill="none" xmlns="http://www.w3.org/2000/svg">
<path d="M37.2865 13.3636C37.2865 23.514 28.9422 31.7463 18.6457 31.7463C8.34918 31.7463 0 23.5189 0 13.3636C0 8.10089 2.2443 3.34941 5.84686 0C6.15843 0.759459 6.5625 1.48484 7.04447 2.16154C5.75436 4.47399 5.01438 7.19538 5.01438 10.1164C5.01438 18.4753 11.1193 25.2471 18.6506 25.2471C26.177 25.2471 32.2867 18.4704 32.2867 10.1164C32.2867 7.20025 31.5419 4.46912 30.2518 2.16154C30.7337 1.48484 31.1378 0.759459 31.4494 0C35.0422 3.34941 37.2865 8.09602 37.2865 13.3636Z" fill="#00AEEF"/>
</svg>
